<svg width="39" height="59" viewBox="0 0 39 59" fill="none" xmlns="http://www.w3.org/2000/svg">
<path d="M13.5296 0.310886C13.4894 0.352341 10.7286 0.642502 9.53584 0.732315C9.22759 0.75304 8.97965 0.801403 8.97965 0.835945C8.97965 0.870487 8.91934 0.898125 8.84563 0.898125C8.70491 0.898125 8.37656 1.18138 8.37656 1.30574C8.37656 1.34028 8.34305 1.38173 8.30285 1.39555C8.21573 1.42318 8.21573 3.22635 8.30955 3.62704C8.34305 3.77904 8.37656 4.29719 8.37656 4.78079C8.37656 5.2644 8.40336 5.67201 8.43687 5.69274C8.46367 5.71346 8.51058 6.20398 8.53068 6.78431C8.55078 7.36464 8.61779 8.49075 8.6781 9.29215C8.73841 10.0866 8.79872 11.1851 8.82553 11.724C8.84563 12.2698 8.88584 12.7119 8.90594 12.7119C8.92604 12.7119 8.95955 13.1265 8.96625 13.6239C8.97965 14.1282 9.01986 14.6671 9.04666 14.8191C9.08016 14.9711 9.11367 15.4616 9.11367 15.9107V16.719H6.39975C3.75285 16.7121 3.59202 16.719 3.04924 16.9262C2.77449 17.0299 2.24511 17.3062 2.158 17.3891C2.11109 17.4375 2.04408 17.4789 2.01058 17.4789C1.93687 17.4789 1.07243 18.3632 1.07243 18.4392C1.07243 18.4669 0.998722 18.5843 0.904907 18.6948C0.811093 18.8054 0.737381 18.9505 0.737381 19.0126C0.737381 19.0817 0.710577 19.137 0.670371 19.137C0.636866 19.137 0.603361 19.1992 0.603361 19.2752C0.603361 19.3512 0.576557 19.4133 0.549753 19.4133C0.516247 19.4133 0.435835 19.6413 0.368825 19.9108C0.194598 20.5878 0.194598 21.9074 0.362124 22.4532C0.529649 22.9851 0.630165 23.2131 0.683773 23.2131C0.717278 23.2131 0.737381 23.2753 0.737381 23.3513C0.737381 23.4273 0.770887 23.4895 0.804392 23.4895C0.844598 23.4895 0.871402 23.5309 0.871402 23.5793C0.871402 23.676 1.40748 24.3392 1.66212 24.5603C1.74924 24.6363 1.90336 24.7676 2.00388 24.8505C2.09769 24.9403 2.21161 25.0094 2.25852 25.0094C2.29872 25.0094 2.34563 25.0301 2.35903 25.0577C2.38584 25.1337 2.86161 25.3548 2.98223 25.3548C3.03584 25.3548 3.08274 25.3824 3.08274 25.4239C3.08274 25.4584 3.14305 25.493 3.21676 25.493C3.29718 25.493 3.35078 25.5413 3.35078 25.6104C3.35078 25.6795 3.38429 25.9697 3.42449 26.2529C3.458 26.5362 3.52501 27.006 3.55852 27.2892C3.62553 27.8281 3.70594 28.3946 3.81315 29.1546C3.84666 29.4033 3.90697 29.8523 3.94718 30.1563C3.98068 30.4603 4.06109 31.0683 4.1214 31.5035C4.18171 31.9388 4.24872 32.4845 4.26212 32.7125C4.28223 32.9405 4.32243 33.1892 4.35594 33.2652C4.38944 33.3412 4.42965 33.5899 4.44975 33.8179C4.46986 34.0459 4.51676 34.4466 4.55027 34.716C4.62398 35.2411 4.69099 35.7316 4.85852 36.9959C4.91882 37.4519 4.99924 38.0391 5.03274 38.3085C5.07295 38.5711 5.11315 38.9787 5.13326 39.2067C5.15336 39.4347 5.19357 39.6834 5.22707 39.7594C5.26058 39.8354 5.30078 40.0703 5.32089 40.2775C5.36109 40.7818 5.46831 41.6592 5.59563 42.5574C5.65594 42.9581 5.72295 43.5108 5.74305 43.7871C5.76315 44.0566 5.81006 44.2845 5.83687 44.2845C5.87037 44.2845 5.89718 44.5125 5.89718 44.7889C5.89718 45.0652 5.92398 45.3208 5.95748 45.3623C5.99099 45.3968 6.0379 45.6248 6.058 45.8735C6.09151 46.3157 6.11161 46.4539 6.33274 48.0152C6.39305 48.4505 6.46006 49.0377 6.48017 49.314C6.50027 49.5904 6.54718 49.8322 6.57398 49.8529C6.60748 49.8736 6.63429 50.0878 6.63429 50.3296C6.63429 50.5714 6.66779 50.7925 6.7013 50.8132C6.74151 50.834 6.76831 51.0688 6.76831 51.3245C6.76831 51.5801 6.79511 51.815 6.82862 51.8564C6.86212 51.891 6.90233 52.119 6.92243 52.3677C6.94254 52.6164 7.00955 53.1553 7.06986 53.5767C7.20388 54.5163 7.29099 55.2417 7.3446 55.7875C7.3647 56.0155 7.40491 56.2642 7.43841 56.3402C7.47192 56.4162 7.51212 56.6649 7.53223 56.8929C7.61264 57.9084 7.75336 58.2193 8.34305 58.62C8.53738 58.7513 8.69821 58.7582 11.6936 58.7996C13.4291 58.8273 18.542 58.848 23.0585 58.8549C30.2018 58.8618 31.3008 58.848 31.475 58.7582C31.7162 58.6338 32.0982 58.2124 32.0982 58.0673C32.0982 58.0121 32.125 57.9637 32.1585 57.9637C32.192 57.9637 32.2389 57.7564 32.259 57.4939C32.2858 57.2383 32.3327 56.7685 32.3662 56.4438C32.3998 56.1191 32.4534 55.5457 32.4936 55.1657C32.5606 54.4403 32.7281 52.7684 32.842 51.7114C32.8822 51.3659 32.9425 50.827 32.9693 50.5023C33.0028 50.1776 33.0632 49.618 33.0967 49.2588C33.1302 48.8995 33.1905 48.2916 33.2307 47.9116C33.2843 47.2898 33.3982 46.2259 33.5791 44.4573C33.6461 43.8424 33.7132 43.2897 33.8338 42.281C33.8673 41.9978 33.9276 41.5003 33.9678 41.1756C34.0013 40.8509 34.0817 40.2015 34.142 39.7248C34.3297 38.2533 34.3766 37.8388 34.4168 37.3413C34.4369 37.0719 34.4771 36.7955 34.5106 36.7196C34.5441 36.6436 34.5843 36.3603 34.6044 36.0978C34.6245 35.8283 34.6714 35.3793 34.7049 35.096C34.7384 34.8128 34.7987 34.2532 34.8389 33.8525C34.8791 33.4518 34.9327 33.0372 34.9528 32.9336C34.9729 32.83 35.0199 32.4707 35.0601 32.1391C35.0936 31.8075 35.1539 31.3032 35.1874 31.0199C35.2276 30.7366 35.2678 30.2669 35.2879 29.9836C35.3013 29.7003 35.3482 29.4033 35.3817 29.3273C35.4152 29.2513 35.4554 28.9888 35.4688 28.74C35.5157 27.9663 35.7235 26.1078 35.7838 25.9351C35.8307 25.8177 35.8977 25.7693 36.0183 25.7693C36.1121 25.7693 36.1858 25.7348 36.1858 25.7002C36.1858 25.6588 36.2595 25.6311 36.3534 25.6311C36.4472 25.6311 36.5209 25.5966 36.5209 25.5621C36.5209 25.5206 36.5812 25.493 36.6549 25.493C36.7286 25.493 36.7889 25.4653 36.7889 25.4308C36.7889 25.3962 36.8425 25.3479 36.9162 25.3203C36.9833 25.2995 37.1307 25.1959 37.2379 25.0923C37.3451 24.9817 37.4791 24.8781 37.5394 24.8574C37.5998 24.8297 37.7338 24.6916 37.8343 24.5465C37.9415 24.4014 38.0755 24.2356 38.1358 24.1803C38.1894 24.1251 38.2833 23.9731 38.3369 23.8487C38.3838 23.7313 38.4508 23.6276 38.4776 23.6276C38.5111 23.6276 38.5312 23.5931 38.5312 23.5516C38.5312 23.5102 38.5714 23.3789 38.625 23.2615C38.8327 22.7502 38.8662 22.6397 38.8662 22.4324C38.8662 22.3081 38.8998 22.1699 38.94 22.1285C39.0539 22.011 38.9132 20.1733 38.7925 20.1733C38.759 20.1733 38.7322 20.1111 38.7322 20.0351C38.7322 19.8624 38.4575 19.2959 38.176 18.8607C37.9348 18.5014 37.3585 17.8934 37.258 17.8934C37.2245 17.8934 37.191 17.8658 37.191 17.8313C37.191 17.7207 35.9379 17.1335 35.6967 17.1335C35.6096 17.1335 35.5157 17.1059 35.4755 17.0644C35.4085 16.9953 33.5456 16.9677 22.7034 16.871C17.9121 16.8364 16.6724 16.8019 16.6054 16.7328C16.5451 16.6706 16.5116 16.3044 16.4982 15.4409C16.4848 14.7776 16.4446 14.2318 16.4111 14.2318C16.3776 14.2318 16.3508 13.8381 16.3508 13.3614C16.3508 12.8847 16.324 12.2076 16.2838 11.8622C16.2503 11.5098 16.1766 10.2939 16.1162 9.15398C16.0626 8.01405 15.9956 6.89484 15.9755 6.66686C15.9018 5.76183 15.8013 4.04847 15.7745 2.95C15.7544 2.3144 15.7075 1.79625 15.674 1.79625C15.6405 1.79625 15.6137 1.60971 15.6137 1.38173C15.6137 0.863579 15.4528 0.54578 15.0977 0.352341C14.9637 0.283253 13.5967 0.241802 13.5296 0.310886ZM13.5632 2.874C13.5833 3.05363 13.6034 3.59941 13.6034 4.08302C13.6034 4.6288 13.6302 4.97424 13.6704 4.97424C13.7106 4.97424 13.7374 5.35421 13.7374 5.97599C13.7374 6.59777 13.7642 6.97775 13.8044 6.97775C13.8446 6.97775 13.8714 7.39227 13.8714 8.08313C13.8714 8.774 13.8982 9.18852 13.9384 9.18852C13.9786 9.18852 14.0054 9.5685 14.0054 10.1903C14.0054 10.8121 14.0322 11.192 14.0724 11.192C14.1126 11.192 14.1394 11.496 14.1394 11.9658C14.1394 12.3941 14.1864 13.4304 14.24 14.2664C14.2936 15.1023 14.3405 15.9936 14.3405 16.2492V16.719H12.8394H11.3384L11.2982 15.7656C11.2781 15.2474 11.2245 14.5704 11.191 14.2664C11.1508 13.9624 11.124 13.3337 11.124 12.8639C11.124 12.3458 11.0972 12.0211 11.057 12.0211C11.0168 12.0211 10.99 11.6895 10.99 11.1644C10.99 10.6601 10.9632 10.287 10.9229 10.2594C10.8827 10.2317 10.8559 9.83103 10.8559 9.28524C10.8559 8.71182 10.8291 8.35948 10.7889 8.35948C10.7487 8.35948 10.7219 8.01405 10.7219 7.46136C10.7219 6.90866 10.6951 6.56323 10.6549 6.56323C10.6147 6.56323 10.5879 6.25234 10.5812 5.78255C10.5812 5.36112 10.5544 4.55972 10.5276 4.01393C10.4807 3.21944 10.4874 2.99836 10.5544 2.92236C10.6147 2.86018 10.8358 2.83255 11.2178 2.83255C11.5327 2.83255 11.8075 2.79801 11.8276 2.76346C11.8477 2.72201 12.1358 2.69438 12.4709 2.69438C12.826 2.69438 13.0673 2.66674 13.0673 2.62529C13.0673 2.58384 13.1678 2.5562 13.2951 2.5562C13.5095 2.5562 13.5229 2.57002 13.5632 2.874ZM22.2879 19.8002C27.1595 19.8555 31.9642 19.897 32.9626 19.897C34.6982 19.897 35.3147 19.9522 35.3147 20.118C35.3147 20.1526 35.3549 20.1733 35.4018 20.1733C35.5157 20.1733 35.8441 20.5464 35.9848 20.8227C36.1456 21.1405 36.1121 21.9696 35.9245 22.2321C35.8508 22.3495 35.7838 22.467 35.7838 22.5015C35.7838 22.5913 35.241 22.916 34.9461 22.9989C34.7518 23.0611 33.5389 23.0611 30.3559 23.0059C27.9771 22.9713 22.6095 22.9091 18.4281 22.8677C7.25078 22.771 4.19511 22.7226 4.1214 22.6535C4.0879 22.619 4.00748 22.5913 3.94047 22.5913C3.87346 22.5913 3.81986 22.5568 3.81986 22.5222C3.81986 22.4808 3.77965 22.4532 3.72604 22.4532C3.59872 22.4532 3.21676 21.9765 3.21676 21.8176C3.21676 21.7485 3.18996 21.6932 3.14975 21.6932C3.02243 21.6932 3.06934 20.7536 3.21006 20.4911C3.49151 19.9868 3.73944 19.7726 4.15491 19.6828C4.43635 19.6275 10.3132 19.6621 22.2879 19.8002ZM7.73996 25.7002C7.76676 25.7417 8.17553 25.7693 8.74511 25.7693H9.70336L9.73687 26.5085C9.84408 28.9266 9.91109 30.1287 9.9379 30.1701C9.958 30.2047 9.9848 30.7228 10.0116 31.3308C10.0384 31.9388 10.0853 32.7333 10.1188 33.0925C10.1858 33.7696 10.2193 34.4051 10.2931 36.305C10.3199 36.913 10.3601 37.4242 10.3869 37.445C10.4137 37.4657 10.4405 37.9286 10.4539 38.4813C10.4606 39.034 10.4807 39.5728 10.5008 39.6903C10.5209 39.8008 10.5477 40.0979 10.5611 40.3466C10.6817 42.5712 10.7487 43.5108 10.8023 43.6282C10.9162 43.8631 11.2111 44.1464 11.3384 44.1464C11.4054 44.1464 11.459 44.1809 11.459 44.2224C11.459 44.3053 11.6065 44.2984 12.6652 44.1533C13.3085 44.0704 14.6487 43.8769 15.2116 43.794C15.4528 43.7595 15.8683 43.7111 16.1364 43.6904C16.3977 43.6628 16.6188 43.6213 16.6188 43.5868C16.6188 43.5522 16.7528 43.5246 16.9204 43.5246C17.0879 43.5246 17.2219 43.49 17.2219 43.4555C17.2219 43.414 17.2755 43.3864 17.3425 43.3864C17.423 43.3864 17.5369 43.2621 17.6508 43.041L17.8317 42.6955L17.7915 41.5418C17.7714 40.8993 17.7379 40.2222 17.7178 40.0288C17.6709 39.5314 17.5503 36.9406 17.5168 35.5451C17.5034 34.8957 17.4699 34.2601 17.4498 34.1288C17.4162 33.9008 17.376 33.058 17.2219 29.5C17.1817 28.6848 17.1348 27.5379 17.108 26.9576C17.0678 26.1147 17.0745 25.8799 17.1415 25.8177C17.2085 25.7624 18.3008 25.7693 21.0616 25.8246C23.1724 25.8729 26.4961 25.9075 28.4528 25.9075C30.4095 25.9075 32.1987 25.9282 32.4266 25.9489L32.8353 25.9973V26.3842C32.8353 26.5984 32.8085 26.8816 32.775 27.0129C32.7415 27.1441 32.6946 27.5172 32.6678 27.8419C32.641 28.1666 32.5941 28.5811 32.5606 28.7677C32.5271 28.9542 32.5003 29.2789 32.5003 29.4931C32.5003 29.7142 32.4735 29.9145 32.44 29.956C32.3797 30.0181 32.3596 30.1909 32.259 31.5864C32.2389 31.9249 32.192 32.1944 32.1652 32.1944C32.1384 32.1944 32.0982 32.45 32.0781 32.7609C32.0446 33.2998 31.9173 34.3844 31.7632 35.476C31.6425 36.3188 31.5487 37.1203 31.5152 37.6177C31.5018 37.8802 31.4549 38.1289 31.4214 38.1635C31.3879 38.2049 31.3611 38.4398 31.3611 38.6885C31.3611 38.9372 31.3343 39.1721 31.3008 39.2136C31.2673 39.2481 31.2271 39.5107 31.207 39.7939C31.1735 40.3051 31.0126 41.6454 30.8853 42.5919C30.8451 42.8544 30.7982 43.3381 30.7848 43.6628C30.7647 43.9875 30.7245 44.3122 30.691 44.3882C30.6575 44.4642 30.6106 44.7612 30.5972 45.0445C30.5637 45.5626 30.4632 46.592 30.3961 47.1862C30.376 47.3589 30.3157 47.9807 30.2554 48.5679C30.2018 49.1551 30.1415 49.7769 30.1214 49.9496C30.1013 50.1224 30.0678 50.5645 30.0477 50.9307C30.0276 51.3037 29.9807 51.6077 29.9472 51.6077C29.9137 51.6077 29.8869 51.815 29.8802 52.0706C29.8802 52.4644 29.8668 52.5197 29.7998 52.4091C29.659 52.1673 28.875 51.4005 28.7745 51.4005C28.7209 51.4005 28.6807 51.3659 28.6807 51.3314C28.6807 51.2899 28.6204 51.2623 28.5467 51.2623C28.4729 51.2623 28.4126 51.2277 28.4126 51.1932C28.4126 51.1518 28.3054 51.1241 28.1781 51.1241C28.0508 51.1241 27.9436 51.0896 27.9436 51.055C27.9436 51.0136 27.7425 50.9859 27.4812 50.9859C27.0523 50.9859 27.0188 50.979 27.0523 50.8478C27.0724 50.7718 27.1126 50.7096 27.1461 50.7096C27.1797 50.7096 27.2065 50.6543 27.2065 50.5852C27.2065 50.5162 27.24 50.4263 27.2869 50.378C27.4008 50.2605 27.4008 48.7614 27.2869 48.7199C27.24 48.7061 27.2065 48.6163 27.2065 48.5265C27.2065 48.4366 27.1797 48.3607 27.1461 48.3607C27.1126 48.3607 27.059 48.2916 27.0389 48.2156C26.9786 48.0359 26.3286 47.3244 26.2147 47.3244C26.1678 47.3244 26.1343 47.2967 26.1343 47.2622C26.1343 47.2276 26.0807 47.1862 26.0204 47.1655C25.9534 47.1378 25.7322 47.0618 25.5312 46.9789C24.8611 46.7233 23.5946 46.8407 23.1858 47.2069C23.1121 47.2691 23.0183 47.3244 22.9781 47.3244C22.8441 47.3244 22.2544 48.0014 22.0936 48.3399C21.8858 48.7752 21.7518 49.39 21.7987 49.6802C21.8925 50.2467 21.9394 50.4125 22.0869 50.7027C22.174 50.8685 22.2477 51.0343 22.2477 51.0619C22.2477 51.0965 21.9461 51.1241 21.5776 51.1241C21.1755 51.1241 20.9075 51.1518 20.9075 51.1932C20.9075 51.2277 20.8338 51.2623 20.74 51.2623C20.5858 51.2623 20.0297 51.5455 19.8621 51.7044C19.6879 51.8703 19.4869 52.0292 19.4735 52.0084C19.4668 51.9946 19.4132 51.8495 19.3662 51.6837C19.3126 51.5179 19.2322 51.3452 19.1853 51.2899C19.1384 51.2416 19.0982 51.1725 19.0982 51.1379C19.0982 51.0136 18.4214 50.3642 18.3008 50.3642C18.2673 50.3642 18.2271 50.3296 18.2137 50.2951C18.2003 50.2536 17.9858 50.1431 17.7379 50.0533C17.3961 49.922 17.1482 49.8806 16.7461 49.8806C16.2168 49.8806 15.5199 50.0325 15.4461 50.1638C15.4193 50.1984 15.359 50.226 15.3054 50.226C15.158 50.226 14.2735 51.131 14.2735 51.2761C14.2735 51.3452 14.2467 51.4005 14.2065 51.4005C14.1729 51.4005 14.1394 51.4557 14.1394 51.5248C14.1394 51.5939 14.1126 51.6768 14.0791 51.7114C13.9987 51.8081 13.8714 52.6026 13.9183 52.7753C13.9719 53.0033 13.8513 52.948 13.7441 52.6993C13.5296 52.2019 12.6853 51.4005 12.3704 51.4005C12.3168 51.4005 12.2498 51.3659 12.2296 51.3314C12.2095 51.2899 12.1157 51.2623 12.0286 51.2623C11.9415 51.2623 11.8477 51.2277 11.8276 51.1932C11.774 51.1034 10.5879 51.1034 10.5879 51.1932C10.5879 51.2277 10.5142 51.2623 10.4204 51.2623C10.3266 51.2623 10.1925 51.2968 10.1188 51.3314C9.70336 51.5455 9.73017 51.5455 9.68996 51.2761C9.66315 51.1379 9.61625 50.8201 9.58274 50.5714C9.55594 50.3227 9.47553 49.7631 9.41522 49.3279C9.35491 48.8926 9.2879 48.3123 9.26779 48.0498C9.24769 47.7803 9.20749 47.5385 9.17398 47.504C9.14047 47.4625 9.11367 47.2414 9.11367 46.9996C9.11367 46.7578 9.08687 46.5644 9.04666 46.5644C9.01315 46.5644 8.97965 46.3917 8.97965 46.1844C8.97965 45.9772 8.95285 45.6732 8.91264 45.5143C8.83223 45.155 8.56419 43.041 8.53068 42.433C8.51058 42.1981 8.47037 42.0047 8.43687 42.0047C8.40336 42.0047 8.37656 41.8043 8.37656 41.5556C8.37656 41.3 8.34975 41.1066 8.30955 41.1066C8.26934 41.1066 8.24254 40.8924 8.24254 40.6022C8.24254 40.3259 8.21573 40.0703 8.18223 40.0288C8.14872 39.9943 8.10852 39.7663 8.08841 39.5176C8.06831 39.2688 8.0013 38.7092 7.94099 38.274C7.74666 36.8232 7.69975 36.4501 7.66625 35.9734C7.64614 35.7178 7.60594 35.5105 7.57243 35.5105C7.54563 35.5105 7.49872 35.2825 7.47862 35.0062C7.43841 34.4604 7.3714 33.9423 7.20388 32.7471C7.14357 32.3118 7.07656 31.7246 7.05645 31.4482C7.03635 31.1788 6.99614 30.9508 6.96264 30.9508C6.92913 30.9508 6.90233 30.7366 6.90233 30.4741C6.90233 30.2047 6.87553 29.9698 6.83532 29.9491C6.80181 29.9283 6.76831 29.7142 6.76831 29.4724C6.76831 29.2375 6.74151 29.0164 6.708 28.9749C6.6745 28.9404 6.63429 28.7262 6.61419 28.4982C6.56728 27.9386 6.37965 26.4256 6.31264 26.0802C6.27913 25.9282 6.26573 25.7624 6.28584 25.714C6.31934 25.6104 7.67965 25.5966 7.73996 25.7002ZM14.9034 26.5085C14.9838 27.5725 15.0709 29.8454 15.0709 30.9301C15.0776 31.5864 15.1044 31.9871 15.1446 31.9871C15.1848 31.9871 15.2116 32.4845 15.2116 33.3343C15.2116 34.1841 15.2384 34.6815 15.2786 34.6815C15.3188 34.6815 15.3456 35.1651 15.3456 35.9941C15.3456 36.8232 15.3724 37.3068 15.4126 37.3068C15.4528 37.3068 15.4797 37.8042 15.4797 38.654C15.4797 39.5037 15.5065 40.0012 15.5467 40.0012C15.5869 40.0012 15.6137 40.2913 15.6137 40.7266V41.452H15.4126C15.3054 41.452 15.2116 41.4796 15.2116 41.5211C15.2116 41.5625 15.024 41.5902 14.776 41.5902C14.5281 41.5902 14.3405 41.6178 14.3405 41.6592C14.3405 41.7007 14.1595 41.7283 13.9384 41.7283C13.7173 41.7283 13.5364 41.756 13.5364 41.7974C13.5364 41.832 13.3755 41.8665 13.1745 41.8665H12.8126L12.7724 40.9131C12.7523 40.395 12.7054 39.6557 12.6652 39.2758C12.625 38.8958 12.5982 38.1911 12.5982 37.7075C12.5982 37.1962 12.5714 36.8163 12.5312 36.7886C12.491 36.761 12.4642 36.3396 12.4642 35.7454C12.4642 35.1306 12.4374 34.7506 12.3972 34.7506C12.357 34.7506 12.3302 34.3706 12.3302 33.7557C12.3302 33.1616 12.3034 32.7402 12.2632 32.7125C12.2229 32.6849 12.1961 32.2635 12.1961 31.6693C12.1961 31.0544 12.1693 30.6745 12.1291 30.6745C12.0889 30.6745 12.0621 30.3359 12.0621 29.7902C12.0554 28.8644 11.9616 26.9714 11.8879 26.3013L11.841 25.9075H13.3487H14.8565L14.9034 26.5085ZM24.0905 52.2295C24.1106 52.264 24.3116 52.2986 24.5327 52.2986H24.9348L24.8209 52.5197C24.7606 52.644 24.6802 52.8029 24.6534 52.8651C24.6199 52.9342 24.5931 53.1138 24.5931 53.2658C24.5931 53.4178 24.5662 53.5422 24.526 53.5422C24.4925 53.5422 24.459 53.632 24.459 53.7494C24.459 53.8599 24.4925 53.9567 24.526 53.9567C24.5662 53.9567 24.5931 54.0948 24.5931 54.2676C24.5931 54.4403 24.6266 54.5785 24.6601 54.5785C24.7003 54.5785 24.7271 54.6268 24.7271 54.6821C24.7271 54.841 24.9951 55.2831 25.2364 55.5318C25.3637 55.6562 25.4642 55.7875 25.4642 55.822C25.4642 55.8635 25.0755 55.8911 24.526 55.8911C24.0101 55.8911 23.5879 55.8704 23.5879 55.8496C23.5879 55.8013 24.0101 55.2417 24.0771 55.214C24.1039 55.2002 24.124 55.1311 24.124 55.0551C24.124 54.9861 24.1575 54.9239 24.191 54.9239C24.2312 54.9239 24.258 54.8617 24.258 54.7926C24.258 54.7166 24.2915 54.6337 24.325 54.613C24.3652 54.5923 24.392 54.2676 24.392 53.8945C24.392 53.3556 24.3652 53.1414 24.2513 52.8582C24.1709 52.6648 24.0771 52.5059 24.0503 52.5059C24.0168 52.5059 23.99 52.4437 23.99 52.3746C23.99 52.2986 23.9498 52.2226 23.9095 52.2088C23.8559 52.1881 23.8626 52.1673 23.9364 52.1673C23.9967 52.1604 24.0704 52.1881 24.0905 52.2295ZM14.0791 53.5422C14.1126 53.5422 14.1394 53.6043 14.1394 53.6803C14.1394 53.7563 14.1662 53.8185 14.1931 53.8185C14.2199 53.8185 14.3003 53.9152 14.374 54.0396C14.6219 54.4817 15.3523 55.0621 15.6472 55.0621C15.7008 55.0621 15.7477 55.0897 15.7477 55.1311C15.7477 55.1657 15.8482 55.2002 15.9755 55.2002C16.1028 55.2002 16.2302 55.2279 16.2503 55.2693C16.2704 55.3039 16.4982 55.3384 16.7595 55.3384C17.0209 55.3384 17.2219 55.3108 17.2219 55.2693C17.2219 55.2279 17.3291 55.2002 17.4565 55.2002C17.5838 55.2002 17.691 55.1657 17.691 55.1311C17.691 55.0897 17.7379 55.0621 17.7915 55.0621C17.9724 55.0621 18.4147 54.7926 18.6626 54.5439L18.8972 54.3021L18.9374 54.4886C18.991 54.7788 19.1786 55.2002 19.2456 55.2002C19.2724 55.2002 19.2992 55.2348 19.2992 55.2831C19.2992 55.3315 19.3931 55.4697 19.5137 55.594L19.7281 55.822H16.458H13.1946L13.3152 55.6493C13.3822 55.5595 13.4559 55.4766 13.4894 55.4766C13.5162 55.4766 13.5364 55.4282 13.5364 55.366C13.5364 55.3039 13.59 55.2002 13.657 55.1381C13.8647 54.9446 13.9719 54.4541 13.9719 53.7149C13.9719 53.3349 13.9786 53.1414 13.992 53.2796C14.0054 53.4247 14.0389 53.5422 14.0791 53.5422ZM29.5518 55.6078C29.5518 55.8704 29.4781 55.9602 29.2436 55.9602C28.9621 55.9602 28.9554 55.898 29.2168 55.7184C29.324 55.6424 29.4178 55.5595 29.4178 55.5249C29.4178 55.4973 29.4513 55.4766 29.4848 55.4766C29.525 55.4766 29.5518 55.5388 29.5518 55.6078Z" fill="#FF686B"/>
<path d="M18.8635 43.8631C18.6423 43.9184 18.18 44.1395 18.0326 44.25C17.7444 44.4711 17.2217 45.0652 17.2217 45.1827C17.2217 45.2172 17.1949 45.2518 17.1547 45.2518C17.1212 45.2518 17.0877 45.3139 17.0877 45.383C17.0877 45.459 17.0609 45.535 17.0274 45.5557C16.9939 45.5765 16.9336 45.8045 16.8867 46.0532C16.8197 46.4262 16.8197 46.6059 16.8867 46.9858C16.9336 47.2484 17.0006 47.4625 17.0341 47.4625C17.0609 47.4625 17.0877 47.5247 17.0877 47.6007C17.0877 47.6767 17.1212 47.7389 17.1547 47.7389C17.1949 47.7389 17.2217 47.7734 17.2217 47.808C17.2217 47.9669 17.8851 48.6646 18.1532 48.7821C18.2671 48.8374 18.3609 48.8995 18.3609 48.9272C18.3609 48.9617 18.4346 48.9824 18.5284 48.9824C18.6222 48.9824 18.696 49.0101 18.696 49.0515C18.696 49.0861 18.7764 49.1206 18.8836 49.1206C18.9841 49.1206 19.1717 49.1552 19.299 49.1897C19.5537 49.2657 20.6393 49.1413 20.6393 49.0377C20.6393 49.0101 20.6996 48.9824 20.7733 48.9824C20.847 48.9824 20.9073 48.9479 20.9073 48.9134C20.9073 48.8719 20.9676 48.8443 21.0413 48.8443C21.115 48.8443 21.1753 48.8166 21.1753 48.7821C21.1753 48.7475 21.2289 48.6992 21.296 48.6785C21.5506 48.5887 21.9191 48.1603 22.1537 47.6698C22.3882 47.1793 22.4083 47.0826 22.4016 46.4401C22.3949 45.7975 22.3815 45.7423 22.147 45.2863C22.0063 45.0169 21.832 44.7474 21.7516 44.6783C21.6712 44.6093 21.5439 44.4918 21.4568 44.4158C21.3764 44.3467 21.2826 44.2846 21.249 44.2846C21.2155 44.2846 21.1753 44.2638 21.1619 44.2293C21.1552 44.2016 21.0078 44.1049 20.8403 44.0151C20.5856 43.8769 20.4248 43.8493 19.8016 43.8286C19.3996 43.8148 18.9774 43.8286 18.8635 43.8631Z" fill="#FF686B"/>
<path d="M12.5314 45.314C12.0824 45.4522 11.6603 45.6595 11.6603 45.7424C11.6603 45.7769 11.6268 45.8046 11.5866 45.8046C11.4056 45.8046 10.7824 46.6129 10.6685 46.979C10.635 47.1103 10.568 47.3314 10.5278 47.4695C10.3402 48.1051 10.6015 49.0378 11.1376 49.6458C11.4659 50.005 11.935 50.3643 12.0891 50.3643C12.1494 50.3643 12.1963 50.3919 12.1963 50.4334C12.1963 50.4679 12.2701 50.5025 12.3572 50.5025C12.451 50.5025 12.5448 50.5301 12.5649 50.5715C12.585 50.613 12.9134 50.6406 13.3087 50.6406C13.7309 50.6406 14.0056 50.613 14.0056 50.5715C14.0056 50.5301 14.0994 50.5025 14.2067 50.5025C14.3206 50.5025 14.4077 50.4679 14.4077 50.4334C14.4077 50.3919 14.4546 50.3643 14.5082 50.3643C14.6355 50.3643 14.9304 50.1777 15.0845 50.005C15.1448 49.9359 15.2185 49.8807 15.252 49.8807C15.3324 49.8738 15.7479 49.3003 15.7479 49.2036C15.7479 49.1553 15.7814 49.1207 15.8149 49.1207C15.8551 49.1207 15.8819 49.0655 15.8819 48.9964C15.8819 48.9273 15.9221 48.8306 15.969 48.7822C16.083 48.6647 16.083 47.1034 15.9623 47.0619C15.9154 47.0481 15.8819 46.9583 15.8819 46.8685C15.8819 46.7787 15.8551 46.7027 15.8216 46.7027C15.7881 46.7027 15.7345 46.6405 15.7144 46.5576C15.6608 46.3849 15.1314 45.8046 15.0242 45.8046C14.9773 45.8046 14.9438 45.77 14.9438 45.7355C14.9438 45.694 14.8969 45.6664 14.8433 45.6664C14.7897 45.6664 14.7427 45.6388 14.7427 45.6111C14.7427 45.542 14.401 45.4039 13.9386 45.2864C13.4628 45.1621 12.9938 45.169 12.5314 45.314Z" fill="#FF686B"/>
</svg>
