<svg width="45" height="44" viewBox="0 0 45 44" fill="none" xmlns="http://www.w3.org/2000/svg">
<path d="M21.2461 0.0448265C16.1583 0.313667 11.2956 2.07904 7.5073 5.03179C3.71903 7.98902 1.17516 11.9947 0.325666 16.3544C0.109849 17.4835 0.0685227 17.9674 0.0685227 19.5133C0.0685227 21.1621 0.109849 21.6012 0.394543 22.9813C1.06495 26.2342 2.58485 29.1243 5.02312 31.7902L5.29403 32.086L2.97516 36.6428C-0.179437 42.8306 -0.105967 42.6558 0.0731145 43.1621C0.215461 43.5654 0.624135 43.9014 1.07873 43.9731C1.4323 44.0314 1.76291 43.879 8.72873 40.4961L14.3583 37.7585L15.2262 37.9915C18.0685 38.7442 20.1257 39.0355 22.5456 39.0355C30.3287 39.0265 37.5333 35.545 41.6752 29.7874C42.7542 28.2909 43.7277 26.3597 44.242 24.7108C44.8711 22.69 45.0364 21.4041 44.9859 18.9308C44.9491 17.2729 44.8803 16.7442 44.5129 15.3014C43.4476 11.1524 40.7935 7.36173 37.0374 4.63749C34.1216 2.52263 30.7604 1.10226 27.0731 0.421204C25.3144 0.0985947 23.0323 -0.0492668 21.2461 0.0448265ZM23.992 2.5988C25.2318 2.66153 25.6818 2.70185 26.4716 2.84523C29.7777 3.4322 32.9874 4.77192 35.5175 6.62243C37.2257 7.87701 38.6951 9.37803 39.7971 11C41.1838 13.0387 42.0104 15.1805 42.3685 17.6538C42.4833 18.4469 42.4833 20.6648 42.3685 21.4489C42.015 23.8909 41.1746 26.0281 39.765 28.0937C37.2257 31.7992 33.093 34.5951 28.3542 35.8004C26.94 36.1634 25.5532 36.3964 24.3134 36.477C23.2711 36.5442 20.6721 36.5039 19.8364 36.4053C18.2338 36.2171 16.3236 35.7646 14.6935 35.1955L14.2114 35.0253L9.1925 37.4762C6.4374 38.8204 4.17822 39.9137 4.17822 39.9002C4.17822 39.8868 5.12873 38.0228 6.29046 35.7511L8.4073 31.6245L7.60832 30.8269C6.68995 29.9128 6.15271 29.299 5.61546 28.5507C2.62158 24.3927 1.80883 19.5312 3.33332 14.9161C4.56852 11.1658 7.43383 7.74259 11.1578 5.55603C13.7338 4.04605 16.6726 3.07375 19.9741 2.6436C20.7088 2.54951 22.4905 2.52711 23.992 2.5988Z" fill="#FF686B"/>
</svg>
