<svg width="58" height="48" viewBox="0 0 58 48" fill="none" xmlns="http://www.w3.org/2000/svg">
<path d="M27.0325 0.122623C23.4392 0.328225 20.0298 1.0162 16.8632 2.17468C8.80866 5.12427 3.07854 10.7704 0.941695 17.8636C0.515063 19.2831 0.246578 20.6907 0.103141 22.2801C0.0406175 22.9681 0.0442954 25.0953 0.103141 25.7991C0.48564 30.1325 2.0046 33.944 4.73726 37.4432C5.23009 38.0719 6.67917 39.6337 7.29705 40.1951C9.0514 41.7964 11.2875 43.3345 13.4317 44.406C15.37 45.3786 17.2457 46.1062 19.2832 46.6755C29.0517 49.4076 39.9381 47.8379 47.7205 42.5674C53.3697 38.744 56.9704 33.1533 57.7942 26.9259C57.9413 25.8149 57.9781 25.2376 57.9781 24.0198C57.9744 22.7823 57.9229 22.0073 57.7611 20.8963C57.2205 17.1875 55.7236 13.7398 53.3182 10.6597C52.7592 9.948 51.2586 8.34668 50.5709 7.72987C45.786 3.44783 39.3129 0.810596 32.0712 0.197746C30.6626 0.0791301 28.386 0.0474999 27.0325 0.122623ZM26.5985 5.69363C27.6724 5.89132 28.5772 6.04157 28.625 6.02971C28.7427 5.99808 28.9045 6.08506 29.0517 6.2709C29.2024 6.45278 29.2466 6.57534 29.2429 6.81258C29.2429 7.05772 29.1252 7.31076 28.9009 7.53613C28.7023 7.73778 28.2499 7.98687 28.0807 7.98687C27.8894 7.98687 24.3734 7.46892 24.2557 7.42147C24.1123 7.36216 23.8806 7.13679 23.807 6.98259C23.5716 6.49627 23.6121 6.01785 23.91 5.69758C24.0534 5.54338 24.5021 5.29824 24.5977 5.32196C24.6309 5.32987 25.5319 5.49989 26.5985 5.69363ZM39.0224 6.53185C39.4049 6.65837 39.5777 6.77699 39.6697 6.96678C39.7579 7.14866 39.7432 7.47683 39.6329 7.73383C39.5446 7.94338 39.221 8.35063 39.0849 8.42971C38.9635 8.49693 35.407 9.68704 35.2489 9.71472C34.951 9.75821 34.6052 9.55656 34.4618 9.25211C34.3772 9.07814 34.3147 8.58391 34.3515 8.37831C34.3919 8.15294 34.5611 7.78128 34.7082 7.60335C34.8038 7.48474 34.9179 7.44124 36.595 6.92328C38.5773 6.30648 38.4302 6.3302 39.0224 6.53185ZM18.0953 7.16051C18.2828 7.25541 18.2865 7.25936 19.2943 8.93581L20.3057 10.6162L20.2873 11.0116C20.2579 11.6798 20.0335 12.2571 19.7871 12.3124C19.4524 12.3836 18.9412 12.2887 18.6653 12.1068C18.5808 12.0515 18.3307 11.6165 17.6576 10.3592C17.1611 9.4419 16.7198 8.63926 16.6756 8.57996C16.4292 8.2676 16.4623 7.92362 16.7749 7.48869C16.9036 7.31077 16.9662 7.26332 17.2052 7.16051C17.5436 7.01422 17.7974 7.01422 18.0953 7.16051ZM11.9348 10.8099C12.1886 10.9365 12.413 11.1895 12.4939 11.4386C12.5638 11.6561 12.5785 12.2768 12.516 12.4389C12.5012 12.4864 11.9017 13.1704 11.1846 13.9612C9.73916 15.5585 9.72813 15.5704 9.22426 15.6099C8.88222 15.6337 8.7351 15.5981 8.5696 15.436C8.3857 15.258 8.33421 15.088 8.35996 14.7322C8.39674 14.1589 8.3857 14.1747 9.6987 12.601C10.9602 11.0867 11.1699 10.8534 11.3464 10.7704C11.5119 10.6913 11.7289 10.7071 11.9348 10.8099ZM30.8023 12.174C32.8141 12.4666 34.5023 13.1388 35.83 14.1747C36.183 14.4515 36.8855 15.1829 37.0988 15.4992C37.6505 16.3216 37.919 17.1519 37.919 18.0495C37.919 18.7216 37.7939 19.2515 37.485 19.9038C37.1834 20.5365 36.7641 21.0821 36.172 21.6198C33.7556 23.8063 29.4194 24.6169 25.6459 23.5889C23.807 23.0867 22.3138 22.2169 21.2987 21.0505C20.5006 20.1332 20.1034 19.117 20.1108 18.0099C20.1144 17.144 20.3608 16.3691 20.8905 15.5704C21.1479 15.1829 21.7658 14.5187 22.1777 14.1905C23.6047 13.0518 25.5945 12.3203 27.8674 12.0989C28.4816 12.0396 30.1734 12.0831 30.8023 12.174ZM45.4439 12.866C45.9073 13.119 45.8669 13.032 46.7459 15.5506C47.2755 17.0531 47.544 17.7806 47.5697 17.7529C47.6801 17.6343 47.6948 17.7688 47.6028 18.0534C47.5182 18.3183 47.1983 18.6623 46.9518 18.7533C46.6466 18.8679 46.356 18.8442 46.0581 18.6821C45.569 18.4172 45.6057 18.4884 44.712 16.2228C44.2707 15.1117 43.8919 14.1035 43.8698 13.9889C43.7594 13.4274 44.0169 13.032 44.6311 12.8027C44.929 12.692 45.1497 12.7118 45.4439 12.866ZM12.5711 21.9875C14.4983 22.6795 14.5719 22.715 14.7374 23.0472C14.7889 23.15 14.822 23.2884 14.822 23.3912C14.822 23.6165 14.6932 23.9645 14.5498 24.1226C14.3953 24.2926 14.0938 24.4389 13.8326 24.4627C13.6303 24.4824 13.5568 24.4587 11.876 23.7865C10.9161 23.403 10.129 23.0709 10.1217 23.0551C10.1143 23.0353 10.0334 22.893 9.94144 22.7348C9.71709 22.3592 9.69502 22.1536 9.83846 21.8808C10.0555 21.4696 10.2173 21.3549 10.574 21.351C10.7616 21.351 11.0485 21.4419 12.5711 21.9875ZM43.5167 22.1694C44.8371 22.6597 45.5653 22.9483 45.6756 23.0314C45.9184 23.2014 46.025 23.4346 46.0213 23.7628C46.0103 24.3401 45.7271 24.7829 45.1717 25.0795L44.8628 25.2416L42.8473 24.522L40.8319 23.7984L40.6737 23.5849C40.3133 23.1025 40.1257 22.6636 40.1257 22.3197C40.1257 21.9994 40.4199 21.6949 40.8944 21.521C41.3394 21.3589 41.3173 21.351 43.5167 22.1694ZM21.8614 25.8228C22.8692 26.4198 23.7666 26.9734 23.8511 27.0564C24.2079 27.3925 24.2557 27.8155 23.9983 28.3454C23.7335 28.891 23.3546 29.1282 22.825 29.0926L22.5639 29.0729L20.8169 27.8986C19.5554 27.0485 19.0221 26.6689 18.8971 26.5266C18.6727 26.2735 18.5366 25.9612 18.5366 25.7042C18.5366 25.5183 18.5513 25.4907 18.7426 25.2574C19.0993 24.8304 19.3384 24.7038 19.7687 24.7276L20.0262 24.7394L21.8614 25.8228ZM5.11975 27.3964C5.38088 27.6534 5.58317 27.9223 6.12381 28.7645C6.36287 29.1322 6.66078 29.5711 6.78215 29.7332C7.33383 30.4607 8.19445 31.2475 8.77188 31.548C9.5663 31.9632 10.2835 32.0343 11.6038 31.8287C12.9867 31.6152 13.2993 31.635 14.2151 32.0066C14.627 32.1727 15.1934 32.493 16.1718 33.1216C18.7536 34.7704 19.7797 35.3081 21.1406 35.7391C21.7731 35.9407 22.2366 36.0198 22.7735 36.0198C23.8328 36.0198 24.7669 35.7589 26.65 34.9325C28.2131 34.2445 28.7023 34.0824 29.2282 34.0824C29.7872 34.0824 30.1513 34.201 31.4276 34.806C32.873 35.4861 33.4026 35.6521 34.2411 35.6917C35.3592 35.7391 36.183 35.4426 37.919 34.375C38.8863 33.7819 39.4453 33.4893 40.008 33.2917C40.7951 33.0149 40.9348 33.003 42.9945 32.9951C45.0688 32.9872 45.5984 32.9437 46.6466 32.6986C47.8235 32.4178 48.217 32.0936 48.9563 30.7968C49.7102 29.4722 50.181 28.891 50.946 28.3454C51.4646 27.9816 52.0972 27.7681 52.5201 27.8234C52.8107 27.859 53.1086 27.9262 53.1086 27.9539C53.1086 28.029 52.7997 29.0887 52.6709 29.4564C51.597 32.5167 49.7102 35.0986 46.8746 37.376C43.1011 40.4086 37.9742 42.4132 32.439 43.0142C31.1922 43.1526 30.4345 43.1882 29.0185 43.1882C27.6062 43.1882 26.8596 43.1526 25.5981 43.0142C20.2799 42.4449 15.2891 40.551 11.5487 37.6884C8.05102 35.0116 5.77809 31.635 4.93218 27.863C4.763 27.0999 4.763 27.1078 4.84391 27.1552C4.88069 27.179 5.00574 27.2857 5.11975 27.3964ZM36.2492 27.7088C36.6354 27.9223 36.8671 28.4996 36.7789 29.0215C36.6906 29.5473 36.812 29.4366 34.848 30.7612C33.877 31.4175 33.0569 31.9869 33.0201 32.0264C32.8803 32.1846 32.4831 32.2281 32.1447 32.1213C31.7953 32.0106 31.5931 31.6943 31.5931 31.2633C31.5931 31.1091 31.6997 30.7256 31.8027 30.4963L31.9057 30.2748L33.6674 29.0057C34.6383 28.3058 35.4916 27.7048 35.5615 27.6653C35.727 27.5783 36.0433 27.5941 36.2492 27.7088Z" fill="#FF686B"/>
</svg>
