<svg width="50" height="50" viewBox="0 0 50 50" fill="none" xmlns="http://www.w3.org/2000/svg">
<path d="M26.9532 4.70702C23.9454 5.21484 20.6836 6.89453 18.4571 9.10156C13.6133 13.8672 12.3243 21.3867 15.3321 27.3437L16.0547 28.7695L10.6837 34.1601C7.73443 37.1289 5.17584 39.8242 5.00006 40.1758C4.60943 40.9375 4.5899 42.6172 4.96099 43.3203C5.27349 43.9258 6.1524 44.7656 6.7774 45.0976C7.4024 45.4101 9.10162 45.3515 9.82428 45C10.1758 44.8242 12.8711 42.2656 15.8399 39.3164L21.2305 33.9453L22.6563 34.668C24.9415 35.8203 26.6407 36.1914 29.5899 36.1914C32.5782 36.1914 34.2383 35.8203 36.6407 34.6094C40.7422 32.5586 43.6719 28.9648 44.961 24.4922C45.5274 22.4609 45.586 18.5547 45.0391 16.6016C42.793 8.41796 35.0977 3.35937 26.9532 4.70702ZM32.4024 9.39453C34.8633 9.99999 37.4024 11.7773 38.8868 13.9648C42.0118 18.5351 41.4649 24.5312 37.5782 28.3984C35.4493 30.5469 32.6368 31.6992 29.5899 31.6992C24.4727 31.6992 20.1172 28.3789 18.6329 23.3398C18.1836 21.7773 18.1836 19.043 18.6329 17.4805C20.1758 12.2461 24.961 8.74999 30.1563 9.10156C30.8985 9.14062 31.8946 9.27734 32.4024 9.39453Z" fill="black"/>
<path d="M30.3516 11.8945C29.7852 12.1484 29.1016 13.0469 29.1016 13.5547C29.1016 14.4531 29.8047 15.1758 30.9766 15.5273C32.5 15.9766 33.9258 17.3828 34.5312 19.1016C34.9805 20.293 35.6055 20.8984 36.4062 20.8984C37.4805 20.8984 38.418 19.6289 38.1836 18.4961C37.4805 15.1758 32.5195 10.9961 30.3516 11.8945Z" fill="black"/>
</svg>
