<svg width="32" height="30" viewBox="0 0 32 30" fill="none" xmlns="http://www.w3.org/2000/svg">
<path d="M16 28.331C15.5444 28.331 15.1052 28.1763 14.7629 27.8952C13.4702 26.8355 12.2239 25.8396 11.1242 24.9612L11.1186 24.9566C7.89476 22.381 5.11083 20.1567 3.17382 17.9656C1.00854 15.5161 0 13.1937 0 10.6565C0 8.19145 0.90161 5.91728 2.53857 4.25262C4.19506 2.56828 6.46801 1.64062 8.93944 1.64062C10.7866 1.64062 12.4782 2.18811 13.9673 3.26775C14.7187 3.81271 15.3999 4.47968 16 5.25764C16.6003 4.47968 17.2812 3.81271 18.0329 3.26775C19.5219 2.18811 21.2136 1.64062 23.0607 1.64062C25.5319 1.64062 27.8051 2.56828 29.4616 4.25262C31.0986 5.91728 31.9999 8.19145 31.9999 10.6565C31.9999 13.1937 30.9916 15.5161 28.8264 17.9654C26.8894 20.1567 24.1057 22.3808 20.8823 24.9561C19.7807 25.836 18.5324 26.8334 17.2368 27.8957C16.8947 28.1763 16.4553 28.331 16 28.331ZM8.93944 3.39798C6.99779 3.39798 5.2141 4.12445 3.9165 5.44373C2.5996 6.78291 1.87426 8.63411 1.87426 10.6565C1.87426 12.7904 2.72021 14.6988 4.61693 16.8443C6.45018 18.9182 9.17698 21.0967 12.3342 23.6192L12.3401 23.6238C13.4438 24.5057 14.695 25.5054 15.9973 26.573C17.3073 25.5034 18.5605 24.502 19.6665 23.6188C22.8234 21.0963 25.55 18.9182 27.3832 16.8443C29.2797 14.6988 30.1257 12.7904 30.1257 10.6565C30.1257 8.63411 29.4003 6.78291 28.0834 5.44373C26.7861 4.12445 25.0022 3.39798 23.0607 3.39798C21.6384 3.39798 20.3325 3.82187 19.1794 4.65775C18.1518 5.40298 17.436 6.34506 17.0163 7.00424C16.8005 7.34322 16.4206 7.54555 16 7.54555C15.5793 7.54555 15.1994 7.34322 14.9836 7.00424C14.5642 6.34506 13.8484 5.40298 12.8205 4.65775C11.6675 3.82187 10.3616 3.39798 8.93944 3.39798Z" fill="black"/>
</svg>
