<svg width="50" height="50" viewBox="0 0 50 50" fill="none" xmlns="http://www.w3.org/2000/svg">
<path d="M24.0625 3.70119C23.7792 3.82815 20.7714 6.82619 12.9296 14.7949C7.0312 20.791 2.09956 25.8594 1.98237 26.0547C1.47456 26.8848 1.63081 27.9785 2.35347 28.7012C3.03706 29.3848 4.01362 29.5313 4.89253 29.0918C5.10737 28.9844 8.83784 25.2637 14.1503 19.8535C19.0527 14.8731 23.2519 10.625 23.496 10.4297C24.2187 9.83401 25.0878 9.71682 25.9179 10.1074C26.1523 10.2246 29.4042 13.4668 35.4101 19.5703C42.3925 26.6699 44.6582 28.9258 45.0488 29.1309C45.4882 29.375 45.6347 29.4043 46.1425 29.3653C46.8945 29.3067 47.4804 29.0137 47.8515 28.4961C48.4082 27.7344 48.4668 26.8067 48.0175 26.0645C47.9003 25.8594 44.3359 22.168 40.0976 17.8516C27.7343 5.27346 26.3574 3.89651 25.9277 3.70119C25.4199 3.46682 24.58 3.46682 24.0625 3.70119Z" fill="white"/>
<path d="M24.4336 13.3984C24.3066 13.4668 20.6445 17.1484 16.2988 21.5723L8.39844 29.6191V37.6562C8.39844 43.2324 8.42773 45.7617 8.50586 45.9277C8.56445 46.0547 8.73047 46.2305 8.88672 46.3184C9.13086 46.4648 9.69727 46.4844 14.6191 46.4844C19.502 46.4844 20.0977 46.4648 20.3027 46.3281C20.791 45.9863 20.8008 45.8496 20.8008 40.957V36.4062L21.1328 36.0742L21.4648 35.7422H25H28.5352L28.8672 36.0742L29.1992 36.4062V40.957C29.1992 45.8496 29.209 45.9863 29.6973 46.3281C29.9023 46.4648 30.498 46.4844 35.3711 46.4844C39.0723 46.4844 40.8887 46.4551 41.0449 46.377C41.1719 46.3184 41.3477 46.1523 41.4355 45.9961C41.5918 45.7422 41.6016 45.0098 41.6016 37.6758V29.6387L38.7402 26.7578C37.168 25.1758 33.5449 21.5137 30.6934 18.6133C25.6055 13.457 25.498 13.3594 25.0879 13.3105C24.8438 13.291 24.5605 13.3301 24.4336 13.3984Z" fill="white"/>
</svg>
