<svg width="47" height="48" viewBox="0 0 47 48" fill="none" xmlns="http://www.w3.org/2000/svg">
<path d="M11.8601 0.103127C11.1991 0.234379 10.4923 0.618752 9.95071 1.14375C9.31731 1.75313 8.99602 2.29688 8.80324 3.08438L8.65637 3.68438L7.99543 3.85313C7.09582 4.0875 6.48996 4.44375 5.82903 5.10938C4.53469 6.42188 3.80949 8.7375 3.69934 11.8688C3.64426 13.3313 3.65344 13.3969 3.85539 13.7719C3.97473 13.9781 4.23176 14.2688 4.43371 14.4094C4.77336 14.6531 4.88352 14.6719 5.79231 14.7L6.77453 14.7375L6.87551 15.3094C6.92141 15.6281 7.12336 16.9125 7.30696 18.1594L7.6466 20.4281L7.30696 20.7469C6.92141 21.1219 6.7011 21.6094 6.7011 22.0875C6.7011 22.6875 9.08781 39.0281 9.23469 39.45C9.41828 39.9563 9.81301 40.3594 10.2995 40.5188L10.6851 40.65L11.1624 43.8094C11.4745 45.8719 11.6857 47.0531 11.7866 47.2031C11.8693 47.3344 12.1171 47.55 12.3282 47.7L12.7138 47.9531H23.4999H34.2861L34.6716 47.7C34.8827 47.55 35.1306 47.3344 35.2132 47.2031C35.3142 47.0531 35.5253 45.8813 35.8374 43.8188L36.3148 40.6688L36.8105 40.5C37.3521 40.3125 37.7468 39.9281 37.912 39.4313C38.0222 39.0656 40.2988 22.5563 40.2988 22.0875C40.2988 21.6094 40.0784 21.1219 39.6929 20.7469L39.3532 20.4281L39.6929 18.1594C39.8765 16.9125 40.0784 15.6281 40.1335 15.3L40.2253 14.7188H41.1066C42.1714 14.7188 42.6212 14.5406 43.0159 13.95L43.2822 13.5656L43.273 12.0094C43.2638 8.93438 42.5111 6.46875 41.1708 5.10938C40.5099 4.44375 39.904 4.0875 39.0044 3.85313L38.3435 3.68438L38.1966 3.08438C38.0038 2.29688 37.6825 1.75313 37.0491 1.14375C36.48 0.59063 35.8099 0.234379 35.0663 0.0937538C34.4697 -0.0187454 12.4384 -0.0187454 11.8601 0.103127ZM34.6073 3.84375C34.7083 3.94688 34.7909 4.11563 34.7909 4.20938C34.7909 4.3125 34.8736 4.8 34.9745 5.29688C35.2866 6.91875 35.7273 7.30313 37.3888 7.39688L38.3894 7.45313L38.7015 7.81875C39.1054 8.29688 39.6562 10.0594 39.6562 10.8938C39.6562 11.0531 39.0503 11.0625 23.4999 11.0625C7.94953 11.0625 7.34367 11.0531 7.34367 10.8938C7.34367 10.0594 7.89446 8.29688 8.29836 7.81875L8.61047 7.45313L9.62024 7.39688C11.2634 7.30313 11.7132 6.90938 12.0253 5.29688C12.1263 4.8 12.2089 4.3125 12.2089 4.20938C12.2089 4.11563 12.2915 3.94688 12.3925 3.84375C12.5761 3.65625 12.6954 3.65625 23.4999 3.65625C34.3044 3.65625 34.4238 3.65625 34.6073 3.84375ZM36.5351 14.9063C36.5351 15.0469 35.8099 19.875 35.7548 20.1281L35.7089 20.3438H23.4999H11.2909L11.245 20.1281C11.19 19.875 10.4648 15.0469 10.4648 14.9063C10.4648 14.8406 14.5773 14.8125 23.4999 14.8125C32.4226 14.8125 36.5351 14.8406 36.5351 14.9063ZM26.7312 24.0375C27.9521 24.4781 29.2097 25.6406 29.788 26.8594C30.4673 28.3031 30.403 29.8781 29.5861 31.5469C28.4753 33.7969 25.3267 36.2906 22.7655 36.9469C21.3519 37.3125 20.0484 37.0594 19.1304 36.2438C17.2027 34.5188 17.2394 31.6125 19.2405 28.4906C20.0484 27.225 22.4443 24.9281 23.5917 24.3281C24.629 23.775 25.7306 23.6813 26.7312 24.0375ZM32.6796 40.6313C32.6796 40.6594 32.5603 41.4844 32.4042 42.4688C32.2573 43.4531 32.1288 44.2781 32.1288 44.3063C32.1288 44.325 28.2458 44.3438 23.4999 44.3438C18.754 44.3438 14.871 44.325 14.871 44.3063C14.871 44.2781 14.7517 43.4531 14.5956 42.4688C14.4488 41.4844 14.3202 40.6594 14.3202 40.6313C14.3202 40.6125 18.4511 40.5938 23.4999 40.5938C28.5488 40.5938 32.6796 40.6125 32.6796 40.6313Z" fill="#FF686B"/>
<path d="M27.2728 26.3156C26.9332 26.6718 26.107 27.6281 25.4277 28.4531C24.7484 29.2781 23.1787 31.0031 21.9394 32.2968C19.4334 34.8937 19.0938 35.2781 19.0938 35.5031C19.0938 35.8875 20.5533 35.3156 21.967 34.3781C23.7387 33.1968 25.3359 31.5843 26.5385 29.7281C27.9062 27.6562 28.6223 25.6874 28.0164 25.6874C27.943 25.6874 27.6033 25.9687 27.2728 26.3156Z" fill="#FF686B"/>
</svg>
