<svg width="81" height="74" viewBox="0 0 81 74" fill="none" xmlns="http://www.w3.org/2000/svg">
<path d="M37.0465 1.04525C21.9138 2.17947 8.46598 11.6023 3.1886 24.835C0.136615 32.4547 0.104824 41.7902 3.06143 49.3518C3.95159 51.562 5.89087 55.2556 6.93999 56.6806L7.57582 57.4949L7.76657 56.6806C7.86194 56.2153 8.17986 54.5867 8.43419 53.0743C9.70585 46.0654 12.5353 37.3406 15.5555 31.0296C19.434 23.0027 25.697 15.5866 31.7691 11.8059C38.5725 7.58887 46.7111 6.07657 52.2428 7.99603C56.1214 9.33384 59.5867 12.5329 61.0809 16.1101C62.0346 18.3786 62.2254 22.3338 61.5577 24.9804C60.604 28.6448 58.0925 32.3965 55.263 34.3741C54.5954 34.8104 54.0867 35.2466 54.0867 35.3338C54.0867 35.4211 55.3902 36.0318 56.948 36.7298C66.2629 40.8305 70.0461 49.7589 65.8178 57.6113C63.5924 61.7701 59.9682 64.562 53.9278 66.7142C47.2198 69.128 35.9656 71.1057 29.0351 71.1057C26.2056 71.1057 26.6825 71.4838 30.6564 72.4144C40.1939 74.6247 49.8903 73.6359 58.6329 69.5643C62.7022 67.6739 65.945 65.4345 69.3148 62.2063C76.5315 55.2846 80.1875 46.9088 80.1875 37.2242C80.1875 29.5755 78.0257 23.1191 73.3524 16.7209C71.3177 13.9289 66.0085 9.07209 62.9566 7.2108C55.1994 2.44122 46.3296 0.34726 37.0465 1.04525Z" fill="#4BD0AF"/>
<path d="M40.1939 14.9468C27.6998 17.7678 17.9081 30.2153 10.5324 52.6381C9.1972 56.7679 7.00359 64.533 7.25792 64.3003C7.35329 64.184 7.95733 63.2533 8.59316 62.2354L9.73765 60.3741L12.2492 62.7007C13.648 63.9804 15.8098 65.6963 17.0179 66.5106C18.2578 67.354 19.3705 68.1101 19.4976 68.2265C19.6566 68.3428 18.1306 68.9245 16.0959 69.5352C14.0931 70.1459 12.4717 70.6985 12.5353 70.7567C13.0122 71.1638 28.4946 68.779 35.139 67.2667C48.714 64.1549 56.4075 60.345 59.078 55.401C59.841 54.005 59.9364 53.4524 59.9364 51.0385C59.9364 48.6247 59.841 48.1012 59.078 46.8215C56.9162 43.0408 51.3527 39.6963 43.8817 37.6605L41.4973 37.0206L42.61 36.2354C50.4943 30.7678 53.9596 26.6963 54.3093 22.5374C54.7861 16.5173 48.3961 13.0855 40.1939 14.9468Z" fill="#4BD0AF"/>
</svg>
