<svg width="50" height="50" viewBox="0 0 50 50" fill="none" xmlns="http://www.w3.org/2000/svg">
<g clip-path="url(#clip0)">
<path d="M9.61735 3.5621C4.58164 6.01852 2.2296 7.14053 2.02552 7.17865C1.62246 7.26035 1.32144 7.43464 1.02042 7.756C0.678579 8.12637 0.489804 8.44227 0.30613 8.94336C-0.0204004 9.8366 7.81198e-06 8.85621 7.81198e-06 25C7.81198e-06 41.1438 -0.0204004 40.1634 0.30613 41.0566C0.663273 42.037 1.27042 42.6634 2.03062 42.8214C2.2194 42.8595 4.85715 44.1176 9.64286 46.4434L16.9643 50L17.2092 49.9455C17.9235 49.7821 18.5306 49.1449 18.8776 48.1917C19.2041 47.2876 19.1837 49.0033 19.1837 25C19.1837 1.00218 19.2041 2.71242 18.8776 1.80828C18.602 1.04576 18.148 0.468414 17.6276 0.212423C17.0102 -0.0925882 17.7551 -0.403046 9.61735 3.5621ZM14.148 21.0131C15.7602 21.6394 16.4541 23.6057 15.648 25.2451C15.5561 25.4248 15.3469 25.719 15.1786 25.8987C14.0918 27.0588 12.352 27.0588 11.2551 25.8987C10.7092 25.3268 10.4439 24.6242 10.449 23.78C10.4592 22.4346 11.2551 21.3235 12.5 20.9368C12.8571 20.8224 13.7806 20.866 14.148 21.0131Z" fill="black"/>
<path d="M23.2654 6.34534V8.33336H28.3164H33.3674V11.9826V15.6318H35.0052H36.6378L36.6225 11.6939C36.6021 7.82683 36.6021 7.75602 36.4899 7.33118C36.1735 6.12203 35.4797 5.16887 34.5664 4.68957C33.9286 4.35188 34.046 4.35733 28.4082 4.35733H23.2654V6.34534Z" fill="black"/>
<path d="M39.0308 15.2668V18.0283H32.7297H26.4287L26.4389 24.2483L26.4542 30.4738L32.7399 30.4901L39.0308 30.501L39.041 33.0119L39.0563 35.5228L44.4644 29.8474C47.4389 26.7265 49.9032 24.1394 49.9389 24.1067C49.99 24.0522 49.1277 23.1154 45.5257 19.33C43.0614 16.7429 40.592 14.1503 40.041 13.5675L39.0308 12.5054V15.2668Z" fill="black"/>
<path d="M33.4031 32.2821C33.3827 32.2985 33.3674 34.4227 33.3674 36.9935V41.6667H28.3164H23.2654V43.6547V45.6427H28.4082C32.6633 45.6427 33.6072 45.6264 33.8878 45.561C35.1072 45.2887 36.1225 44.1503 36.495 42.6471L36.6072 42.1841V37.2277V32.2712L35.0205 32.2549C34.148 32.2495 33.4236 32.2604 33.4031 32.2821Z" fill="black"/>
</g>
<defs>
<clipPath id="clip0">
<rect width="50" height="50" fill="white"/>
</clipPath>
</defs>
</svg>
