<svg width="45" height="44" viewBox="0 0 45 44" fill="none" xmlns="http://www.w3.org/2000/svg">
<path d="M11.9092 3.01641C8.56061 3.4375 5.16803 5.57735 3.14654 8.55079C1.63482 10.7766 0.958067 12.9938 0.958067 15.7523C0.949278 18.7602 1.91607 21.6992 3.8233 24.5438C7.37408 29.8375 12.5772 34.5984 20.3555 39.6859C22.0342 40.7773 22.5704 41.0781 22.834 41.0781C23.0186 41.0781 25.9366 39.1961 27.7032 37.9414C30.542 35.9047 33.8907 33.232 36.0176 31.2898C37.1338 30.2672 38.8038 28.5055 39.7881 27.3109C41.8975 24.75 43.6465 21.4156 44.1739 18.9492C44.3057 18.3305 44.3409 17.8234 44.3409 16.4141C44.3321 14.7984 44.3145 14.5664 44.086 13.6297C42.8292 8.3875 39.2081 4.39141 34.6465 3.20547C33.8995 3.00782 33.6094 2.98203 32.3438 2.97344C31.1221 2.96485 30.7442 2.99922 29.9883 3.1625C27.6504 3.67813 25.5147 4.675 23.3702 6.27344L22.7022 6.77188L22.1397 6.3336C18.8526 3.80703 15.1612 2.6125 11.9092 3.01641ZM33.7588 4.42579C36.545 4.89844 39.1817 6.76328 40.9395 9.4961C41.8008 10.8453 42.5831 12.8563 42.8467 14.4289C43.0665 15.7094 42.9962 17.7547 42.6797 18.9664C41.4317 23.8133 36.668 29.6141 29.5313 34.9852C27.712 36.3516 22.9747 39.5313 22.7549 39.5313C22.6495 39.5313 21.1817 38.5773 19.7315 37.5719C15.4073 34.5555 10.4151 30.3703 7.98932 27.7063C6.06451 25.6008 4.84283 23.8992 3.83209 21.9141C2.67193 19.6367 2.25006 18.0383 2.25006 15.9414C2.25006 14.5492 2.39068 13.6641 2.78619 12.4266C4.09576 8.37032 7.74322 5.14766 11.7774 4.50313C12.7442 4.33985 14.335 4.39141 15.3282 4.59766C17.4376 5.03594 19.5557 6.07578 21.5948 7.67422C22.6407 8.48203 22.9483 8.51641 23.6426 7.86329C24.5567 7.0125 26.1915 5.93829 27.334 5.43985C28.5469 4.90704 29.9971 4.49453 31.1573 4.35703C31.8165 4.2711 33.0909 4.30547 33.7588 4.42579Z" fill="#FF686B"/>
</svg>
