<svg width="53" height="59" viewBox="0 0 53 59" fill="none" xmlns="http://www.w3.org/2000/svg">
<g clip-path="url(#clip0)">
<path d="M41.9631 46.5862C41.6007 46.3305 41.1212 46.4498 40.8915 46.8531C38.9526 50.2548 35.6377 52.2858 32.0239 52.2858H12.0458C6.25986 52.2858 1.55273 47.0453 1.55273 40.6044V19.8919C1.55273 19.4147 1.20499 19.0276 0.776367 19.0276C0.347748 19.0276 0 19.4147 0 19.8919V40.6044C0 47.9987 5.40384 54.0143 12.0458 54.0143H32.0239C36.1722 54.0143 39.9777 51.6831 42.2024 47.7791C42.4321 47.3762 42.325 46.8419 41.9631 46.5862ZM35.1375 23.6194L29.2181 30.2094C28.9148 30.547 28.9148 31.0944 29.2181 31.4315C29.3693 31.6003 29.5683 31.685 29.7668 31.685C29.9653 31.685 30.1643 31.6003 30.3159 31.4315L36.2353 24.842C36.5386 24.5044 36.5386 23.957 36.2353 23.6194C35.9325 23.2823 35.4408 23.2823 35.1375 23.6194ZM51.8767 9.2201L49.1707 6.2078C47.673 4.54005 45.2355 4.54005 43.7378 6.2078L40.9287 9.33488C38.6465 6.54045 35.448 4.95508 32.0239 4.95508H12.0458C9.27476 4.95508 6.5692 6.02865 4.42731 7.97773C2.31576 9.8989 0.838638 12.5831 0.268898 15.535C0.178726 16.0018 0.445602 16.4614 0.864922 16.5618C0.919914 16.5744 0.974907 16.5811 1.02869 16.5811C1.38695 16.5811 1.70882 16.3039 1.78686 15.8983C2.28341 13.328 3.56967 10.9905 5.4099 9.31598C7.27521 7.61852 9.63181 6.68359 12.0458 6.68359H32.0239C35.0307 6.68359 37.8382 8.08711 39.8293 10.5588L31.5731 19.7496H9.92335C9.49432 19.7496 9.14658 20.1363 9.14658 20.6139C9.14658 21.091 9.49432 21.4782 9.92335 21.4782H30.0203L26.2978 25.6216H9.92335C9.49432 25.6216 9.14658 26.0088 9.14658 26.4864C9.14658 26.9635 9.49432 27.3506 9.92335 27.3506H24.7451L19.9292 32.7117C18.5337 34.2651 17.3918 36.0567 16.5358 38.0363L14.326 43.1467C13.7146 44.5615 13.9637 46.1928 14.9608 47.3028C15.5949 48.0086 16.4185 48.3777 17.2612 48.3777C17.7432 48.3777 18.2317 48.2566 18.6939 48.0091L20.9211 46.8158C20.9215 46.8153 20.9223 46.8153 20.9227 46.8149L23.285 45.5495C25.0629 44.5966 26.6723 43.3254 28.0681 41.772L42.5174 25.6869V40.6044C42.5174 41.551 42.4155 42.4922 42.2146 43.4024C42.1123 43.866 42.367 44.3337 42.7835 44.4476C42.8458 44.4647 42.908 44.4728 42.9691 44.4728C43.3185 44.4728 43.6355 44.209 43.7224 43.8147C43.9533 42.77 44.0702 41.6896 44.0702 40.6044V23.9584L46.2282 21.556C46.2286 21.5556 46.2286 21.5556 46.2286 21.5551C46.229 21.5551 46.229 21.5551 46.229 21.5547L51.8767 15.2681C53.3744 13.6004 53.3744 10.8874 51.8767 9.2201ZM18.0206 46.4516C17.2103 46.886 16.476 46.5448 16.0587 46.0807C15.6418 45.6162 15.3353 44.7987 15.7255 43.8966L16.3805 42.381C16.9272 42.8676 17.4577 43.3952 17.9644 43.9592C18.4711 44.5232 18.945 45.1138 19.3821 45.7224L18.0206 46.4516ZM22.6113 43.9921L20.8147 44.9545C20.2822 44.1856 19.6955 43.4416 19.0622 42.7371C18.429 42.0322 17.7606 41.3786 17.0704 40.7862L17.9349 38.7863C18.5317 37.4066 19.2806 36.1278 20.169 34.9691L26.0402 41.5051C24.9994 42.4936 23.8506 43.3277 22.6113 43.9921ZM27.1741 40.3226L21.2312 33.707L38.6388 14.3282L44.5817 20.9438L27.1741 40.3226ZM45.6799 19.7217L39.7371 13.1061L41.6537 10.9725L47.597 17.5881L45.6799 19.7217ZM50.7789 14.0455L48.6948 16.3655L42.752 9.74991L44.8356 7.42992C45.282 6.93297 45.8679 6.68494 46.4543 6.68494C47.0402 6.68494 47.6265 6.93297 48.0725 7.42992L50.7785 10.4422C51.6709 11.4357 51.6709 13.0521 50.7789 14.0455ZM9.92335 15.6057H34.1468C34.5754 15.6057 34.9232 15.219 34.9232 14.7414C34.9232 14.2639 34.5754 13.8772 34.1468 13.8772H9.92335C9.49432 13.8772 9.14658 14.2639 9.14658 14.7414C9.14658 15.219 9.49432 15.6057 9.92335 15.6057Z" fill="black"/>
</g>
<defs>
<clipPath id="clip0">
<rect width="53" height="59" fill="white"/>
</clipPath>
</defs>
</svg>
