<svg width="73" height="72" viewBox="0 0 73 72" fill="none" xmlns="http://www.w3.org/2000/svg">
<g clip-path="url(#clip0)">
<path d="M22.8999 2.30003C15.6999 5.30003 10.7999 9.30002 6.49994 15.5C-4.30006 31.5 -1.00006 52.9 14.2999 64.9C26.6999 74.6 46.6999 74.4 59.3999 64.4C64.2999 60.5 69.3999 52.8 71.3999 46.1C76.6999 28.1 66.9999 8.60003 49.3999 2.00002C41.6999 -0.79998 30.3999 -0.699974 22.8999 2.30003ZM49.4999 5.90002C55.3999 8.50002 62.5999 15.4 65.7999 21.5C68.1999 25.9 68.4999 27.7 68.4999 36C68.4999 44.3 68.1999 46.1 65.7999 50.5C64.3999 53.2 62.0999 56.5 60.6999 57.8L58.1999 60.2L57.5999 57.3C56.7999 53.7 51.5999 48.2 47.3999 46.4C42.9999 44.6 29.8999 44.6 25.4999 46.5C21.0999 48.3 16.2999 53.5 15.3999 57.3L14.7999 60.2L12.2999 57.8C10.8999 56.5 8.59994 53.2 7.19994 50.5C4.79994 46.1 4.49994 44.3 4.49994 36C4.49994 27.7 4.79994 25.9 7.19994 21.5C9.99994 16.1 16.7999 9.20002 21.8999 6.60002C29.4999 2.60002 41.3999 2.30003 49.4999 5.90002Z" fill="#4BD0AF"/>
<path d="M31.3999 16.9C30.2999 17.4 28.0999 19.2 26.6999 21C23.5999 24.7 23.0999 30.4 25.4999 35C29.5999 42.9 43.3999 42.9 47.4999 35C51.6999 26.8 46.7999 17.2 37.9999 16.4C35.4999 16.2 32.5999 16.4 31.3999 16.9Z" fill="#4BD0AF"/>
</g>
<defs>
<clipPath id="clip0">
<rect width="73" height="72" fill="white"/>
</clipPath>
</defs>
</svg>
