<svg width="44" height="41" viewBox="0 0 44 41" fill="none" xmlns="http://www.w3.org/2000/svg">
<path d="M9.82422 0.0992889C6.35742 0.520382 3.33008 2.70241 1.57227 6.02331C0.9375 7.2196 0.537109 8.32019 0.224609 9.6696C0.0195312 10.5692 0 10.8946 0 13.1053C0 15.4501 0.00976562 15.5936 0.273437 16.6846C1.25 20.7042 3.59375 24.7524 7.38281 28.9442C8.65234 30.351 11.7969 33.3753 13.4277 34.7438C15.6641 36.6292 18.8965 39.0983 21.3477 40.7923L22.002 41.2421L23.7305 40.0075C32.9883 33.404 38.8867 27.3938 41.8848 21.5272C43.0664 19.1921 43.7305 17.1823 43.9941 15.0864C44.1699 13.7466 44.0723 11.0382 43.7988 9.82273C42.7539 5.01843 39.6387 1.4487 35.5469 0.348114C34.2871 0.0131531 32.0215 -0.101688 30.4199 0.0992889C28.4863 0.328976 26.7285 1.00847 25.2832 2.08991C24.5801 2.60671 23.3105 3.81257 22.3828 4.85573L22.0215 5.25769L20.4785 3.73601C18.3105 1.57312 16.8848 0.730927 14.6582 0.261982C13.623 0.0514374 10.957 -0.0442657 9.82422 0.0992889Z" fill="#FF686B"/>
</svg>
