<svg width="43" height="45" viewBox="0 0 43 45" fill="none" xmlns="http://www.w3.org/2000/svg">
<path d="M11.3795 3.08496C8.17974 3.51562 4.93795 5.7041 3.00631 8.74512C1.56178 11.0215 0.915096 13.2891 0.915096 16.1104C0.906697 19.1865 1.83053 22.1924 3.65299 25.1016C7.04595 30.5156 12.0178 35.3848 19.4504 40.5879C21.0545 41.7041 21.5669 42.0117 21.8188 42.0117C21.9952 42.0117 24.7835 40.0869 26.4715 38.8037C29.1842 36.7207 32.384 33.9873 34.4165 32.001C35.4831 30.9551 37.0788 29.1533 38.0194 27.9316C40.035 25.3125 41.7063 21.9023 42.2102 19.3799C42.3362 18.7471 42.3698 18.2285 42.3698 16.7871C42.3614 15.1348 42.3446 14.8975 42.1262 13.9395C40.9252 8.57812 37.4651 4.49121 33.1063 3.27832C32.3924 3.07617 32.1153 3.0498 30.9059 3.04102C29.7385 3.03223 29.3774 3.06738 28.6551 3.23438C26.4211 3.76172 24.3803 4.78125 22.3311 6.41602L21.6928 6.92578L21.1553 6.47754C18.0143 3.89355 14.487 2.67188 11.3795 3.08496ZM32.2581 4.52637C34.9204 5.00977 37.4399 6.91699 39.1196 9.71191C39.9426 11.0918 40.6901 13.1484 40.942 14.7568C41.152 16.0664 41.0848 18.1582 40.7825 19.3975C39.5899 24.3545 35.0379 30.2871 28.2184 35.7803C26.4799 37.1777 21.9532 40.4297 21.7432 40.4297C21.6424 40.4297 20.2399 39.4541 18.8542 38.4258C14.7221 35.3408 9.95181 31.0605 7.63384 28.3359C5.79459 26.1826 4.6272 24.4424 3.66138 22.4121C2.55279 20.083 2.14967 18.4482 2.14967 16.3037C2.14967 14.8799 2.28404 13.9746 2.66197 12.709C3.91334 8.56055 7.39869 5.26465 11.2536 4.60547C12.1774 4.43848 13.6975 4.49121 14.6465 4.70215C16.6622 5.15039 18.6862 6.21387 20.6346 7.84863C21.634 8.6748 21.928 8.70996 22.5915 8.04199C23.4649 7.17188 25.027 6.07324 26.1188 5.56348C27.2778 5.01855 28.6635 4.59668 29.7721 4.45605C30.402 4.36816 31.6198 4.40332 32.2581 4.52637Z" fill="black"/>
</svg>
