<svg width="51" height="52" viewBox="0 0 51 52" fill="none" xmlns="http://www.w3.org/2000/svg">
<g clip-path="url(#clip0)">
<path d="M37.2326 14.1755C35.6971 12.6309 33.6567 11.7904 31.4926 11.8009C29.3285 11.8219 27.3087 12.694 25.7938 14.2596C24.279 15.8251 23.4546 17.9056 23.4649 20.1121C23.4649 20.4588 23.7431 20.7425 24.0832 20.7425C24.4233 20.7425 24.7015 20.4588 24.7015 20.1121C24.6912 18.2418 25.3919 16.4871 26.6698 15.1527C27.9476 13.8183 29.6686 13.0828 31.5029 13.0723C33.3372 13.0617 35.0582 13.7762 36.3669 15.0791C37.6757 16.382 38.397 18.1367 38.4074 20.007C38.4177 21.8773 37.7169 23.632 36.4391 24.9664C35.1612 26.3008 33.4403 27.0364 31.606 27.0469C31.2659 27.0469 30.9876 27.3306 30.9876 27.6773C30.9876 28.024 31.2659 28.3077 31.606 28.3077C33.77 28.2867 35.7898 27.4146 37.3047 25.849C38.8196 24.2835 39.6646 22.1925 39.644 19.986C39.6234 17.7795 38.768 15.7201 37.2326 14.1755Z" fill="black"/>
<path d="M49.5885 23.5689L47.6717 22.7598C47.9706 20.9421 47.9706 19.1138 47.6717 17.3066L49.5885 16.4975C50.1347 16.2769 50.5778 15.8356 50.8045 15.2577C51.0415 14.6798 51.0415 14.0493 50.8045 13.4714L49.7328 10.8236C49.4957 10.2457 49.0629 9.80443 48.4961 9.56276C47.9294 9.32109 47.3111 9.32109 46.7443 9.56276L44.8275 10.3718C43.7867 8.87979 42.5192 7.5874 41.0455 6.51567L41.839 4.56133C42.3234 3.37401 41.7669 2.00807 40.6024 1.51423L38.0158 0.421484C36.8513 -0.0723553 35.5117 0.495034 35.0273 1.68235L34.2338 3.63669C32.451 3.33198 30.6579 3.33198 28.8854 3.63669L28.0919 1.68235C27.8549 1.10445 27.4221 0.66315 26.8553 0.421484C26.2885 0.179818 25.6702 0.179818 25.1034 0.421484L22.5169 1.51423C21.9501 1.7559 21.5173 2.1972 21.2802 2.7751C21.0432 3.353 21.0432 3.98343 21.2802 4.56133L22.0737 6.51567C20.6104 7.5769 19.3429 8.86928 18.2917 10.3718L16.375 9.56276C15.8082 9.32109 15.1899 9.32109 14.6231 9.56276C14.0563 9.80443 13.6235 10.2457 13.3865 10.8236L12.3044 13.4609C11.8201 14.6483 12.3766 16.0142 13.5411 16.508L15.9216 17.5167C16.241 17.6533 16.6017 17.4957 16.7254 17.1805C16.8593 16.8548 16.7047 16.487 16.3956 16.3609L14.0151 15.3522C13.4792 15.1211 13.2216 14.5012 13.4483 13.9548L14.5201 11.3175C14.7365 10.7711 15.3548 10.5084 15.8906 10.7396L18.2711 11.7483C18.5391 11.8638 18.8585 11.7693 19.0234 11.5171C20.1261 9.83595 21.5276 8.40697 23.1661 7.2932C23.4134 7.12509 23.5061 6.80987 23.3928 6.52618L22.4035 4.09901C22.3004 3.83633 22.3004 3.54213 22.4035 3.27945C22.5065 3.01677 22.7127 2.80662 22.9703 2.70155L25.5672 1.6088C25.8248 1.50373 26.1134 1.50373 26.371 1.6088C26.6286 1.71387 26.8347 1.92402 26.9378 2.1867L27.9271 4.61386C28.0404 4.88705 28.329 5.04466 28.6175 4.99212C30.5652 4.59285 32.5335 4.59285 34.4811 4.99212C34.7697 5.05517 35.0582 4.89756 35.1716 4.61386L36.1609 2.1867C36.3876 1.64032 36.9956 1.37764 37.5315 1.6088L40.1181 2.70155C40.6539 2.93271 40.9116 3.55263 40.6848 4.09901L39.7162 6.50516C39.6028 6.77835 39.6955 7.10407 39.9429 7.27219C41.5917 8.39646 42.9932 9.82544 44.0855 11.4961C44.2504 11.7483 44.5596 11.8428 44.8378 11.7272L47.2183 10.7186C47.4759 10.6135 47.7645 10.6135 48.0221 10.7186C48.2797 10.8236 48.4858 11.0338 48.5889 11.2965L49.6606 13.9443C49.7637 14.207 49.7637 14.5012 49.6606 14.7638C49.5576 15.0265 49.3515 15.2367 49.0938 15.3417L46.7134 16.3504C46.4454 16.466 46.2908 16.7602 46.3424 17.0544C46.734 19.0403 46.7237 21.0471 46.3424 23.033C46.2805 23.3272 46.4351 23.6214 46.7134 23.737L49.0938 24.7457C49.6297 24.9768 49.8873 25.5968 49.6606 26.1431L48.5889 28.7805C48.3622 29.3268 47.7542 29.5895 47.2183 29.3584L44.8378 28.3497C44.5699 28.2341 44.2504 28.3286 44.0855 28.5808C42.9829 30.262 41.5814 31.691 39.9429 32.8047C39.6955 32.9728 39.6028 33.288 39.7162 33.5717L40.7055 35.9989C40.8085 36.2616 40.8085 36.5558 40.7055 36.8185C40.6024 37.0812 40.3963 37.2913 40.1387 37.3964L37.5418 38.4891C37.2841 38.5942 36.9956 38.5942 36.738 38.4891C36.4803 38.384 36.2742 38.1739 36.1712 37.9112L35.1819 35.4841C35.0479 35.1583 34.6872 35.0112 34.3781 35.1478C34.0586 35.2844 33.9144 35.6522 34.0483 35.9674L35.0376 38.3946C35.2746 38.9725 35.7075 39.4138 36.2742 39.6554C36.5525 39.771 36.8513 39.834 37.1502 39.834C37.449 39.834 37.7479 39.771 38.0261 39.6554L40.623 38.5627C41.1898 38.321 41.6226 37.8797 41.8596 37.3018C42.0966 36.7239 42.0966 36.0935 41.8596 35.5156L41.0661 33.5612C42.5295 32.5 43.797 31.2076 44.8481 29.7051L46.7649 30.5141C47.3317 30.7558 47.95 30.7558 48.5168 30.5141C49.0835 30.2725 49.5164 29.8312 49.7534 29.2533L50.8251 26.616C51.3095 25.4287 50.753 24.0627 49.5885 23.5689Z" fill="black"/>
<path d="M14.9013 30.6506C11.7067 30.6506 9.1098 33.309 9.1098 36.5662C9.1098 39.8234 11.7067 42.4607 14.9013 42.4607C18.0959 42.4607 20.6928 39.8129 20.6928 36.5557C20.6928 33.2985 18.0959 30.6506 14.9013 30.6506ZM14.9013 41.2104C12.3868 41.2104 10.3464 39.13 10.3464 36.5662C10.3464 34.0024 12.3868 31.922 14.9013 31.922C17.4158 31.922 19.4562 34.0024 19.4562 36.5662C19.4562 39.13 17.4158 41.2104 14.9013 41.2104Z" fill="black"/>
<path d="M27.9682 33.6347H26.5976C26.3091 32.4054 25.835 31.2496 25.1858 30.1674L26.1545 29.1797C26.5049 28.8224 26.6903 28.3601 26.6903 27.8558C26.6903 27.3619 26.5049 26.8891 26.1545 26.5319L24.7118 25.0609C24.3614 24.7036 23.908 24.5145 23.4133 24.5145C22.9187 24.5145 22.4652 24.7036 22.1149 25.0609L21.1462 26.0485C20.0847 25.3866 18.9512 24.9138 17.7455 24.6091V23.2116C17.7455 22.1819 16.9211 21.3413 15.9112 21.3413H13.8707C12.8608 21.3413 12.0364 22.1819 12.0364 23.2116V24.6091C10.8307 24.9033 9.69715 25.3866 8.63572 26.0485L7.66703 25.0609C7.31666 24.7036 6.86323 24.5145 6.36858 24.5145C5.88424 24.5145 5.42051 24.7036 5.07014 25.0609L3.62741 26.5319C3.27704 26.8891 3.09155 27.3514 3.09155 27.8558C3.09155 28.3496 3.27704 28.8224 3.62741 29.1797L4.5961 30.1674C3.94687 31.2496 3.48314 32.4054 3.18429 33.6347H1.83432C0.824412 33.6347 0 34.4753 0 35.505V37.5855C0.0103052 38.6362 0.824412 39.4663 1.83432 39.4663H3.2049C3.49345 40.6956 3.96748 41.8514 4.61671 42.9336L3.64802 43.9213C3.29765 44.2786 3.11216 44.7409 3.11216 45.2452C3.11216 45.7391 3.29765 46.2119 3.64802 46.5691L5.09075 48.0401C5.44112 48.3974 5.89455 48.5865 6.3892 48.5865C6.87354 48.5865 7.33727 48.3974 7.68764 48.0401L8.65633 47.0525C9.71776 47.7144 10.8513 48.1872 12.057 48.4919V49.8894C12.057 50.9191 12.8814 51.7597 13.8913 51.7597H15.9318C16.9417 51.7597 17.7661 50.9191 17.7661 49.8894V48.4814C18.9718 48.1872 20.1054 47.7039 21.1668 47.042L22.1355 48.0296C22.4858 48.3869 22.9393 48.576 23.4339 48.576C23.9286 48.576 24.382 48.3869 24.7324 48.0296L26.1751 46.5586C26.5255 46.2014 26.711 45.7391 26.711 45.2347C26.711 44.7409 26.5255 44.268 26.1751 43.9108L25.2064 42.9231C25.8556 41.8409 26.3194 40.6851 26.6182 39.4557H27.9682C28.9781 39.4557 29.8025 38.6152 29.8025 37.5855V35.505C29.8025 34.4753 28.9781 33.6347 27.9682 33.6347ZM28.5659 37.6065C28.5659 37.9427 28.298 38.2159 27.9682 38.2159H26.0926C25.7938 38.2159 25.5465 38.426 25.4846 38.7202C25.2064 40.1387 24.6705 41.4731 23.877 42.671C23.7122 42.9231 23.7431 43.2594 23.9492 43.4695L25.2785 44.8249C25.3919 44.9405 25.4537 45.0876 25.4537 45.2557C25.4537 45.4133 25.3919 45.5709 25.2785 45.6865L23.8358 47.1575C23.7225 47.2731 23.5782 47.3362 23.4133 47.3362C23.2484 47.3362 23.1042 47.2731 22.9908 47.1575L21.6614 45.8021C21.4553 45.592 21.1256 45.5604 20.8782 45.7286C19.6931 46.5376 18.3947 47.084 17.0035 47.3677C16.715 47.4307 16.5089 47.6829 16.5089 47.9876V49.8999C16.5089 50.2361 16.2409 50.5093 15.9112 50.5093H13.8707C13.541 50.5093 13.273 50.2361 13.273 49.8999V47.9876C13.273 47.6829 13.0669 47.4307 12.7784 47.3677C11.3872 47.084 10.0784 46.5376 8.90365 45.7286C8.8006 45.655 8.67694 45.6235 8.56358 45.6235C8.40901 45.6235 8.24412 45.6865 8.13077 45.8126L6.8014 47.168C6.68804 47.2836 6.54377 47.3467 6.37889 47.3467C6.22431 47.3467 6.06974 47.2836 5.95638 47.168L4.51366 45.697C4.4003 45.5815 4.33847 45.4344 4.33847 45.2662C4.33847 45.1086 4.4003 44.951 4.51366 44.8354L5.84302 43.48C6.04913 43.2699 6.08004 42.9336 5.91516 42.6815C5.12166 41.4731 4.58579 40.1492 4.30755 38.7307C4.24572 38.4365 3.9984 38.2264 3.69955 38.2264H1.83432C1.50455 38.2264 1.23662 37.9532 1.23662 37.617V35.526H1.24692C1.24692 35.1898 1.51486 34.9166 1.84462 34.9166H3.72016C4.01901 34.9166 4.26633 34.7065 4.32816 34.4123C4.6064 32.9938 5.14227 31.6594 5.93577 30.4616C6.10065 30.2094 6.06974 29.8732 5.86363 29.663L4.52396 28.3076C4.41061 28.192 4.34877 28.0449 4.34877 27.8768C4.34877 27.7192 4.41061 27.5616 4.52396 27.446L5.96668 25.975C6.08004 25.8594 6.22431 25.7964 6.3892 25.7964C6.54377 25.7964 6.69835 25.8594 6.81171 25.975L8.14107 27.3304C8.34717 27.5406 8.67694 27.5721 8.92426 27.404C10.1094 26.5949 11.4078 26.0485 12.799 25.7648C13.0875 25.7018 13.2936 25.4496 13.2936 25.1449V23.2326C13.2936 22.8964 13.5616 22.6232 13.8913 22.6232H15.9318C16.2615 22.6232 16.5295 22.8964 16.5295 23.2326V25.1554C16.5295 25.4601 16.7356 25.7123 17.0241 25.7754C18.4153 26.059 19.7241 26.6054 20.8989 27.4145C21.1462 27.5826 21.4759 27.5511 21.682 27.3409L23.0114 25.9855C23.1248 25.8699 23.269 25.8069 23.4339 25.8069C23.5988 25.8069 23.7431 25.8699 23.8564 25.9855L25.2992 27.4565C25.4125 27.5721 25.4743 27.7192 25.4743 27.8873C25.4743 28.0449 25.4125 28.2025 25.2992 28.3181L23.9492 29.663C23.7431 29.8732 23.7122 30.2094 23.877 30.4616C24.6705 31.6699 25.2064 32.9938 25.4846 34.4123C25.5465 34.7065 25.7938 34.9166 26.0926 34.9166H27.9682C28.298 34.9166 28.5659 35.1898 28.5659 35.526V37.6065Z" fill="black"/>
</g>
<defs>
<clipPath id="clip0">
<rect width="51" height="52" fill="white"/>
</clipPath>
</defs>
</svg>
