<svg width="52" height="50" viewBox="0 0 52 50" fill="none" xmlns="http://www.w3.org/2000/svg">
<path d="M26 47.2183C25.2597 47.2183 24.5459 46.9604 23.9897 46.492C21.8891 44.7258 19.8638 43.066 18.0769 41.6019L18.0678 41.5943C12.829 37.3016 8.3051 33.5945 5.15746 29.9427C1.63888 25.8602 0 21.9894 0 17.7608C0 13.6524 1.46512 9.86214 4.12518 7.08771C6.81697 4.28047 10.5105 2.73438 14.5266 2.73438C17.5282 2.73438 20.2772 3.64685 22.6968 5.44624C23.9179 6.35452 25.0248 7.46613 26 8.76274C26.9755 7.46613 28.082 6.35452 29.3035 5.44624C31.7231 3.64685 34.4721 2.73438 37.4737 2.73438C41.4894 2.73438 45.1833 4.28047 47.8751 7.08771C50.5352 9.86214 51.9999 13.6524 51.9999 17.7608C51.9999 21.9894 50.3614 25.8602 46.8428 29.9423C43.6952 33.5945 39.1717 37.3013 33.9337 41.5936C32.1437 43.0599 30.1152 44.7224 28.0098 46.4928C27.454 46.9604 26.7398 47.2183 26 47.2183ZM14.5266 5.6633C11.3714 5.6633 8.47292 6.87408 6.36431 9.07288C4.22436 11.3049 3.04568 14.3902 3.04568 17.7608C3.04568 21.3173 4.42034 24.498 7.50252 28.0739C10.4815 31.5304 14.9126 35.1612 20.0431 39.3654L20.0526 39.373C21.8462 40.8428 23.8794 42.5091 25.9956 44.2883C28.1244 42.5056 30.1608 40.8367 31.958 39.3646C37.0881 35.1604 41.5188 31.5304 44.4978 28.0739C47.5796 24.498 48.9542 21.3173 48.9542 17.7608C48.9542 14.3902 47.7755 11.3049 45.6356 9.07288C43.5274 6.87408 40.6285 5.6633 37.4737 5.6633C35.1624 5.6633 33.0403 6.36978 31.1665 7.76291C29.4967 9.00497 28.3335 10.5751 27.6515 11.6737C27.3008 12.2387 26.6835 12.5759 26 12.5759C25.3164 12.5759 24.6991 12.2387 24.3484 11.6737C23.6668 10.5751 22.5036 9.00497 20.8334 7.76291C18.9596 6.36978 16.8375 5.6633 14.5266 5.6633Z" fill="black"/>
</svg>
