<svg width="68" height="68" viewBox="0 0 68 68" fill="none" xmlns="http://www.w3.org/2000/svg">
<g clip-path="url(#clip0)">
<path d="M52.4163 26.9155H12.7486C10.4054 26.9155 8.49854 28.8224 8.49854 31.1656V33.999C8.49854 44.1085 14.0832 53.2774 23.0707 57.927C23.7649 58.2841 24.6205 58.0148 24.9804 57.3178C25.3374 56.6236 25.0682 55.768 24.3712 55.4081C16.33 51.2487 11.3319 43.046 11.3319 33.9988V31.1655C11.3319 30.3835 11.9666 29.7487 12.7486 29.7487H52.4163C53.1983 29.7487 53.833 30.3835 53.833 31.1655V33.9988C53.833 43.0459 48.8349 51.2485 40.7909 55.4051C40.0939 55.7649 39.8247 56.6207 40.1817 57.3149C40.4339 57.8022 40.9297 58.0827 41.4425 58.0827C41.6635 58.0827 41.8845 58.0317 42.0913 57.924C51.0817 53.2772 56.6664 44.1112 56.6664 33.9987V31.1654C56.6664 28.8224 54.7594 26.9155 52.4163 26.9155Z" fill="#FF686B"/>
<path d="M65.0618 56.1223C64.8407 55.5925 64.325 55.2468 63.7527 55.2468H1.41797C0.845668 55.2468 0.329946 55.5925 0.10894 56.1223C-0.112065 56.6521 0.00972707 57.2614 0.414948 57.6666L3.59123 60.8457C5.46699 62.7185 7.95462 63.7499 10.6039 63.7499H54.5612C57.2105 63.7499 59.701 62.7186 61.5796 60.8457L64.7559 57.6666C65.161 57.2614 65.2828 56.6521 65.0618 56.1223ZM59.5735 58.8424C58.2362 60.1797 56.454 60.9165 54.5641 60.9165H10.6039C8.71406 60.9165 6.93181 60.1797 5.59449 58.8424L4.83518 58.0831H60.3329L59.5735 58.8424Z" fill="#FF686B"/>
<path d="M65.2604 33.6052C61.4438 31.1515 55.3463 33.8149 54.6634 34.1237C53.9522 34.4495 53.6349 35.2883 53.9607 36.0023C54.2865 36.7163 55.1224 37.0308 55.8392 36.705C57.205 36.0845 61.5854 34.614 63.7274 35.9938C64.6936 36.6143 65.1667 37.8185 65.1667 39.6659C65.1667 45.3383 53.7255 48.7668 49.3081 49.6111L48.3051 49.8094C47.5373 49.9596 47.0386 50.7047 47.1888 51.4726C47.322 52.1469 47.9141 52.6144 48.5771 52.6144C48.6678 52.6144 48.7584 52.6059 48.8519 52.5862L49.8464 52.3907C50.5888 52.2489 68.0001 48.8348 68.0001 39.6659C68.0002 36.8155 67.0766 34.7783 65.2604 33.6052Z" fill="#FF686B"/>
<path d="M43.6129 15.0494C45.9164 12.1706 45.9164 7.66273 43.6129 4.78395C43.1226 4.17194 42.2358 4.06993 41.621 4.56294C41.009 5.05317 40.9098 5.94277 41.4 6.55478C42.8593 8.37661 42.8593 11.4566 41.3972 13.2841C39.0909 16.1629 39.0909 20.6708 41.3972 23.5496C41.6777 23.9009 42.0885 24.0823 42.5051 24.0823C42.8139 24.0823 43.1284 23.9803 43.3891 23.7706C44.0011 23.2804 44.1003 22.3879 43.6101 21.7788C42.148 19.9568 42.148 16.8769 43.6129 15.0494Z" fill="#FF686B"/>
<path d="M35.1015 15.0494C37.4078 12.1707 37.4078 7.66278 35.1015 4.784C34.6142 4.17198 33.7217 4.07277 33.1097 4.56299C32.4976 5.05322 32.3984 5.94574 32.8887 6.55483C34.3507 8.37666 34.3507 11.4567 32.8859 13.2842C30.5823 16.163 30.5823 20.6709 32.8859 23.5496C33.1664 23.9009 33.5772 24.0824 33.9937 24.0824C34.3025 24.0824 34.6142 23.9804 34.8777 23.7707C35.4897 23.2804 35.5889 22.3908 35.0987 21.7788C33.6395 19.9569 33.6395 16.877 35.1015 15.0494Z" fill="#FF686B"/>
<path d="M26.6124 15.0521C28.9159 12.1733 28.9159 7.66541 26.6124 4.78664C26.1251 4.17462 25.2353 4.07262 24.6205 4.56563C24.0113 5.05293 23.9122 5.94545 24.3995 6.55468C25.8588 8.37651 25.8588 11.4565 24.3968 13.284C22.0904 16.1628 22.0904 20.6707 24.3968 23.5495C24.6773 23.9008 25.0881 24.0822 25.5046 24.0822C25.8134 24.0822 26.1279 23.9802 26.3886 23.7734C27.0006 23.2832 27.0998 22.3907 26.6096 21.7816C25.1476 19.9567 25.1476 16.8796 26.6124 15.0521Z" fill="#FF686B"/>
</g>
<defs>
<clipPath id="clip0">
<rect width="68" height="68" fill="white"/>
</clipPath>
</defs>
</svg>
